<svg width="40" height="40" viewBox="0 0 40 40" fill="none" xmlns="http://www.w3.org/2000/svg">
<g filter="url(#filter0_d_39_73)">
<path d="M28.381 8.38077H29.9048M10.8572 0.761719H29.1429C32.5092 0.761719 35.2382 3.49065 35.2382 6.85696V25.1427C35.2382 28.509 32.5092 31.2379 29.1429 31.2379H10.8572C7.49089 31.2379 4.76196 28.509 4.76196 25.1427V6.85696C4.76196 3.49065 7.49089 0.761719 10.8572 0.761719ZM20.0001 22.0951C16.6338 22.0951 13.9048 19.3661 13.9048 15.9998C13.9048 12.6335 16.6338 9.90458 20.0001 9.90458C23.3664 9.90458 26.0953 12.6335 26.0953 15.9998C26.0953 19.3661 23.3664 22.0951 20.0001 22.0951Z" stroke="#F2F2F2"/>
</g>
<defs>
<filter id="filter0_d_39_73" x="0" y="0" width="40" height="40" filterUnits="userSpaceOnUse" color-interpolation-filters="sRGB">
<feFlood flood-opacity="0" result="BackgroundImageFix"/>
<feColorMatrix in="SourceAlpha" type="matrix" values="0 0 0 0 0 0 0 0 0 0 0 0 0 0 0 0 0 0 127 0" result="hardAlpha"/>
<feOffset dy="4"/>
<feGaussianBlur stdDeviation="2"/>
<feComposite in2="hardAlpha" operator="out"/>
<feColorMatrix type="matrix" values="0 0 0 0 0 0 0 0 0 0 0 0 0 0 0 0 0 0 0.25 0"/>
<feBlend mode="normal" in2="BackgroundImageFix" result="effect1_dropShadow_39_73"/>
<feBlend mode="normal" in="SourceGraphic" in2="effect1_dropShadow_39_73" result="shape"/>
</filter>
</defs>
</svg>
